<?xml version="1.0" standalone="no"?>
<!DOCTYPE svg PUBLIC "-//W3C//DTD SVG 20010904//EN"
 "http://www.w3.org/TR/2001/REC-SVG-20010904/DTD/svg10.dtd">
<svg version="1.0" xmlns="http://www.w3.org/2000/svg"
 width="200.000000pt" height="140.000000pt" viewBox="0 0 200.000000 140.000000"
 preserveAspectRatio="xMidYMid meet">
<metadata>
Created by potrace 1.16, written by Peter Selinger 2001-2019
</metadata>
<g transform="translate(0.000000,140.000000) scale(0.100000,-0.100000)"
fill="#000000" stroke="none">
<path d="M940 1260 c-25 -4 -61 -14 -80 -23 -97 -41 -827 -401 -842 -414 -25
-23 -22 -48 8 -72 55 -43 45 -47 638 243 222 108 308 146 336 146 28 0 114
-38 336 -146 593 -290 583 -286 638 -243 30 24 33 49 9 72 -19 16 -805 401
-863 422 -50 17 -127 24 -180 15z"/>
<path d="M572 878 c-24 -12 -38 -48 -28 -73 9 -23 70 -46 105 -39 36 8 71 38
71 64 0 46 -90 76 -148 48z"/>
<path d="M1305 868 c-22 -19 -27 -30 -22 -49 19 -76 177 -66 177 10 0 38 -20
53 -78 59 -41 3 -53 0 -77 -20z"/>
<path d="M544 740 c-35 -11 -56 -39 -128 -173 -41 -74 -45 -88 -31 -93 20 -8
18 -10 90 91 53 73 57 77 52 45 -7 -37 -30 -147 -42 -192 -6 -24 -4 -27 22
-30 l28 -3 11 -120 c7 -66 12 -121 13 -122 1 -2 10 -3 20 -3 17 0 20 11 26
108 8 132 8 133 20 135 9 2 15 -34 31 -190 4 -43 9 -53 24 -53 15 0 19 12 24
87 12 155 14 163 45 163 l28 0 -28 123 c-15 67 -26 123 -24 125 1 2 29 -34 62
-80 55 -77 93 -108 93 -76 0 26 -116 221 -143 242 -31 23 -140 32 -193 16z"/>
<path d="M1286 740 c-15 -5 -37 -17 -49 -27 -20 -18 -117 -208 -117 -230 0
-35 36 -4 87 74 l58 86 7 -49 c4 -27 3 -125 -2 -219 -13 -226 -13 -223 9 -234
35 -19 49 7 66 119 18 122 25 154 30 149 2 -2 11 -62 21 -132 19 -133 30 -156
69 -141 15 6 16 29 10 255 -5 143 -4 249 1 249 5 0 33 -38 62 -85 50 -79 72
-99 86 -76 4 5 -19 60 -50 121 -51 102 -60 114 -97 131 -45 20 -139 24 -191 9z"/>
<path d="M820 461 c0 -12 67 -70 98 -84 l25 -11 -7 -112 c-5 -92 -3 -113 8
-117 20 -8 33 11 41 61 4 23 10 42 15 42 5 0 11 -19 15 -42 8 -50 21 -69 41
-61 11 4 13 25 8 117 l-7 112 25 11 c31 14 98 72 98 84 0 16 -19 10 -62 -21
-37 -27 -48 -30 -118 -30 -70 0 -81 3 -118 30 -43 31 -62 37 -62 21z"/>
</g>
</svg>
