<?xml version="1.0" standalone="no"?>
<!DOCTYPE svg PUBLIC "-//W3C//DTD SVG 20010904//EN"
 "http://www.w3.org/TR/2001/REC-SVG-20010904/DTD/svg10.dtd">
<svg version="1.0" xmlns="http://www.w3.org/2000/svg"
 width="75.120000pt" height="46.560000pt" viewBox="0 0 75.120000 46.560000"
 preserveAspectRatio="xMidYMid meet">
<metadata>
Created by potrace 1.16, written by Peter Selinger 2001-2019
</metadata>
<g transform="translate(0.000000,46.560000) scale(0.014672,-0.009094)"
fill="#000000" stroke="none">
<path d="M2440 4820 l0 -130 -180 0 -180 0 0 -120 0 -120 180 0 180 0 0 -177
0 -178 -995 -820 c-548 -450 -994 -823 -993 -827 9 -23 244 -298 254 -296 6 2
424 343 928 758 504 415 920 755 926 755 6 0 422 -340 926 -755 504 -415 922
-756 928 -758 10 -2 245 273 254 296 1 4 -445 377 -993 827 l-995 820 0 178 0
177 180 0 180 0 0 120 0 120 -180 0 -180 0 0 130 0 130 -120 0 -120 0 0 -130z"/>
<path d="M1827 2848 l-727 -603 0 -1037 0 -1038 479 0 480 0 4 483 c3 406 6
489 19 528 76 221 260 359 478 359 218 0 402 -138 478 -359 13 -39 16 -122 19
-528 l4 -483 480 0 479 0 0 1038 0 1037 -721 598 c-397 329 -727 601 -733 603
-7 3 -339 -266 -739 -598z"/>
<path d="M465 1451 l-460 -268 -3 -507 -2 -506 470 0 470 0 0 775 c0 426 -3
775 -7 774 -5 0 -215 -121 -468 -268z"/>
<path d="M4180 945 l0 -775 470 0 470 0 -2 507 -3 506 -430 249 c-236 137
-447 258 -467 269 l-38 19 0 -775z"/>
</g>
</svg>
